<?xml version="1.0" encoding="UTF-8"?>
<svg width="60px" height="60px" viewBox="0 0 60 60" version="1.1" xmlns="http://www.w3.org/2000/svg" xmlns:xlink="http://www.w3.org/1999/xlink">
    <!-- Generator: Sketch 53.2 (72643) - https://sketchapp.com -->
    <title>备件价格</title>
    <desc>Created with Sketch.</desc>
    <defs>
        <rect id="path-1" x="0" y="0" width="60" height="60"></rect>
    </defs>
    <g id="图标合集" stroke="none" stroke-width="1" fill="none" fill-rule="evenodd">
        <g transform="translate(-265.000000, -3488.000000)" id="备件价格">
            <g transform="translate(265.000000, 3488.000000)">
                <g>
                    <g>
                        <mask id="mask-2" fill="white">
                            <use xlink:href="#path-1"></use>
                        </mask>
                        <g id="Mask"></g>
                        <g id="Group-65" mask="url(#mask-2)" fill="#000000" fill-rule="nonzero">
                            <g transform="translate(8.424316, 6.316699)">
                                <path d="M40.1161348,8.85932584 C40.1161348,8.59850618 39.9236017,8.21337138 39.3801943,7.68746615 C38.6127434,6.9447335 37.3713872,6.19257426 35.744992,5.52679754 C32.1184027,4.04222677 27.0694257,3.168 21.6417349,3.168 C16.214366,3.168 11.1655726,4.04222656 7.5390815,5.52678861 C5.91271986,6.19256572 4.67138297,6.94472457 3.90394092,7.68745571 C3.36053468,8.21336479 3.168,8.59850449 3.168,8.85932584 C3.168,9.1201472 3.36053468,9.5052869 3.90394092,10.031196 C4.67138297,10.7739271 5.91271986,11.526086 7.5390815,12.1918631 C11.1655726,13.6764251 16.214366,14.5506517 21.6417349,14.5506517 C27.0694257,14.5506517 32.1184027,13.6764249 35.744992,12.1918541 C37.3713872,11.5260774 38.6127434,10.7739182 39.3801943,10.0311855 C39.9236017,9.5052803 40.1161348,9.1201455 40.1161348,8.85932584 Z M43.2841348,8.85932584 C43.2841348,13.7519242 33.5943615,17.7186517 21.6417349,17.7186517 C9.68977329,17.7186517 9.19741811e-16,13.7519242 9.19741811e-16,8.85932584 C9.19741811e-16,3.9667275 9.68977329,7.94571788e-16 21.6417349,7.94571788e-16 C33.5943615,7.94571788e-16 43.2841348,3.9667275 43.2841348,8.85932584 Z" id="Stroke-1"></path>
                                <path d="M40.0937315,18.4299424 L43.2617315,18.4299424 C43.2617315,24.2137612 33.5020704,28.2008785 21.6374236,28.2008785 C9.77330289,28.2008785 0.0137314782,24.2137132 0.0137314782,18.4299424 L3.18173148,18.4299424 C3.18173148,21.6887676 11.3672686,25.0328785 21.6374236,25.0328785 C31.9080936,25.0328785 40.0937315,21.6887974 40.0937315,18.4299424 Z" id="路径"></path>
                                <path d="M40.0937315,29.0299424 L43.2617315,29.0299424 C43.2617315,34.8137612 33.5020704,38.8008785 21.6374236,38.8008785 C9.77330289,38.8008785 0.0137314782,34.8137132 0.0137314782,29.0299424 L3.18173148,29.0299424 C3.18173148,32.2887676 11.3672686,35.6328785 21.6374236,35.6328785 C31.9080936,35.6328785 40.0937315,32.2887974 40.0937315,29.0299424 Z" id="路径"></path>
                                <path d="M40.0937315,39.0077202 L43.2617315,39.0077202 C43.2617315,44.791539 33.5020704,48.7786562 21.6374236,48.7786562 C9.77330289,48.7786562 0.0137314782,44.791491 0.0137314782,39.0077202 L3.18173148,39.0077202 C3.18173148,42.2665453 11.3672686,45.6106562 21.6374236,45.6106562 C31.9080936,45.6106562 40.0937315,42.2665751 40.0937315,39.0077202 Z" id="路径"></path>
                                <polygon id="Line-2" points="0.0197314782 8.80217578 3.17573148 8.80217578 3.17573148 39.115207 0.0197314782 39.115207"></polygon>
                                <polygon id="Line-2" points="40.0989789 8.5001455 43.2549786 8.49864001 43.2696817 39.32129 40.1136821 39.3227955"></polygon>
                            </g>
                        </g>
                    </g>
                </g>
            </g>
        </g>
    </g>
</svg>