<svg width="80" height="60" xmlns="http://www.w3.org/2000/svg" viewBox="2 0 80 60"><g fill="none" fill-rule="evenodd"><path d="M35 46h-2c-2-3-6-8-6-16s4-13 6-16h2m14 0h2c2 3 6 8 6 16s-4 13-6 16h-2" stroke="#323232" stroke-width="2" stroke-linecap="round" stroke-linejoin="round" vector-effect="non-scaling-stroke"/><path d="M49 43.2v8.2c0 1 0 1.3-.3 1.6-.1.3-.4.6-.7.7-.3.2-.7.3-1.6.3h-8.8c-1 0-1.3 0-1.6-.3-.3-.1-.6-.4-.7-.7-.2-.3-.3-.7-.3-1.6v-8.2m0-26.4V8.6c0-1 0-1.3.3-1.6.1-.3.4-.6.7-.7.3-.2.7-.3 1.6-.3h8.8c1 0 1.3 0 1.6.3.3.1.6.4.7.7.2.3.3.7.3 1.6v8.2" stroke="#323232" vector-effect="non-scaling-stroke" stroke-width="2"/><path d="M34 17.5a14.3 14.3 0 0 1 16 0m0 25a14.3 14.3 0 0 1-16 0" stroke="#323232" vector-effect="non-scaling-stroke" stroke-width="2" fill="#FFF" stroke-linecap="round" stroke-linejoin="round"/><circle fill="#D6D4D4" cx="42" cy="30" r="13"/></g></svg>