<svg width="80" height="60" xmlns="http://www.w3.org/2000/svg" viewBox="0 0 80 60"><g fill="none" fill-rule="evenodd"><circle fill="#D6D4D4" cx="40" cy="40" r="3"/><ellipse stroke="#323232" vector-effect="non-scaling-stroke" stroke-width="2" cx="40" cy="13.9" rx="14" ry="4.9"/><path d="M26 14v33.1c0 2.7 6.3 4.9 14 4.9s14-2.2 14-4.9V14" stroke="#323232" vector-effect="non-scaling-stroke" stroke-width="2"/><path d="M26 44.3c0 2.7 6.3 4.9 14 4.9s14-2.2 14-5" stroke="#323232" vector-effect="non-scaling-stroke" stroke-width="2"/><path d="M19.5 26.5a5 5 0 0 0 0 7M16 23c-4 3.8-4 10.2 0 14m-3.6-17.6a15 15 0 0 0 0 21.2m48.1-7.1c2-2 2-5 0-7M64 37c4-3.8 4-10.2 0-14m3.6 17.6a15 15 0 0 0 0-21.2" stroke="#D6D4D4" vector-effect="non-scaling-stroke" stroke-width="2" stroke-linecap="round" stroke-linejoin="round"/></g></svg>