<?xml version="1.0" encoding="UTF-8"?>
<svg width="60px" height="60px" viewBox="0 0 60 60" version="1.1" xmlns="http://www.w3.org/2000/svg" xmlns:xlink="http://www.w3.org/1999/xlink">
    <!-- Generator: Sketch 52.5 (67469) - http://www.bohemiancoding.com/sketch -->
    <title>上门服务 copy 3</title>
    <desc>Created with Sketch.</desc>
    <defs>
        <rect id="path-1" x="0" y="0" width="60.2" height="60.2"></rect>
    </defs>
    <g id="图标合集" stroke="none" stroke-width="1" fill="none" fill-rule="evenodd">
        <g id="服务官网图标" transform="translate(-156.000000, -351.000000)">
            <g id="上门服务" transform="translate(150.000000, 346.000000)">
                <g>
                    <mask id="mask-2" fill="white">
                        <use xlink:href="#path-1"></use>
                    </mask>
                    <g id="Mask"></g>
                    <g id="Group-60" mask="url(#mask-2)" fill="#000000" fill-rule="nonzero">
                        <g transform="translate(10.622000, 9.418000)">
                            <path d="M3.0515603,15.2462165 L3.0515603,46.3069165 L43.9044397,46.3069165 L43.9044397,15.2246631 L23.7467602,3.52250834 L3.0515603,15.2462165 Z M0,13.4629091 L23.7653132,0 L46.956,13.4629091 L46.956,49.364 L0,49.364 L0,13.4629091 Z" id="Rectangle-12"></path>
                            <path d="M23.478,24.367361 C25.7109126,24.367361 27.5244397,22.545567 27.5244397,20.2940889 C27.5244397,18.0426107 25.7109126,16.2208168 23.478,16.2208168 C21.2450874,16.2208168 19.4315603,18.0426107 19.4315603,20.2940889 C19.4315603,22.545567 21.2450874,24.367361 23.478,24.367361 Z M23.478,27.4244444 C19.5578828,27.4244444 16.38,24.2320755 16.38,20.2940889 C16.38,16.3561023 19.5578828,13.1637333 23.478,13.1637333 C27.3981172,13.1637333 30.576,16.3561023 30.576,20.2940889 C30.576,24.2320755 27.3981172,27.4244444 23.478,27.4244444 Z" id="Oval-4"></path>
                            <path d="M12.3335603,38.6280721 L34.6224397,38.6280721 L34.6224397,36.1692932 C34.6224397,34.2397154 33.0610339,32.6754835 31.1349422,32.6754835 L15.8210578,32.6754835 C13.8949661,32.6754835 12.3335603,34.2397154 12.3335603,36.1692932 L12.3335603,38.6280721 Z M15.8210578,29.6184 L31.1349422,29.6184 C34.7463641,29.6184 37.674,32.5513348 37.674,36.1692932 L37.674,41.6851556 L9.282,41.6851556 L9.282,36.1692932 C9.282,32.5513348 12.2096359,29.6184 15.8210578,29.6184 Z" id="Rectangle-13"></path>
                        </g>
                    </g>
                </g>
            </g>
        </g>
    </g>
</svg>