<?xml version="1.0" encoding="UTF-8"?>
<svg width="60px" height="60px" viewBox="0 0 60 60" version="1.1" xmlns="http://www.w3.org/2000/svg" xmlns:xlink="http://www.w3.org/1999/xlink">
    <!-- Generator: Sketch 52.5 (67469) - http://www.bohemiancoding.com/sketch -->
    <title>寄修预约 copy 3</title>
    <desc>Created with Sketch.</desc>
    <defs>
        <rect id="path-1" x="0" y="0" width="60.2" height="60.2"></rect>
    </defs>
    <g id="图标合集" stroke="none" stroke-width="1" fill="none" fill-rule="evenodd">
        <g id="服务官网图标" transform="translate(-13.000000, -353.000000)">
            <g id="寄修预约" transform="translate(10.000000, 346.000000)">
                <g>
                    <mask id="mask-2" fill="white">
                        <use xlink:href="#path-1"></use>
                    </mask>
                    <g id="Mask"></g>
                    <g id="Group-59" mask="url(#mask-2)" fill-rule="nonzero">
                        <g transform="translate(5.010000, 15.826000)">
                            <polygon id="路径" fill="#0D0D0D" points="3.353168 35.2755935 3.353168 3.34745915 35.794974 3.34745915 51.428832 18.1945656 51.428832 35.2755935 48.6556014 35.2755935 48.6556014 38.6230526 54.782 38.6230526 54.782 16.7588124 37.1351343 0 0 0 0 38.6230526 6.98672862 38.6230526 6.98672862 35.2755935"></polygon>
                            <polygon id="Rectangle-14" fill="#000000" transform="translate(40.436151, 13.922444) scale(-1, 1) translate(-40.436151, -13.922444) " points="44.7690247 6.55071053 48.1221927 6.55071053 48.1221927 21.2941769 32.7501087 21.2941769 32.7501087 17.9467178 44.7690247 17.9467178"></polygon>
                            <path d="M41.6819565,41.5829603 C44.3040816,41.5829603 46.4289913,39.4629666 46.4289913,36.8487368 C46.4289913,34.2345071 44.3040816,32.1145133 41.6819565,32.1145133 C39.0598315,32.1145133 36.9349217,34.2345071 36.9349217,36.8487368 C36.9349217,39.4629666 39.0598315,41.5829603 41.6819565,41.5829603 Z M41.6819565,44.5717632 C37.4067563,44.5717632 33.9410217,41.1140465 33.9410217,36.8487368 C33.9410217,32.5834272 37.4067563,29.1257105 41.6819565,29.1257105 C45.9571568,29.1257105 49.4228913,32.5834272 49.4228913,36.8487368 C49.4228913,41.1140465 45.9571568,44.5717632 41.6819565,44.5717632 Z" id="Oval-3" fill="#040404"></path>
                            <path d="M13.1000435,41.5829603 C15.7221685,41.5829603 17.8470783,39.4629666 17.8470783,36.8487368 C17.8470783,34.2345071 15.7221685,32.1145133 13.1000435,32.1145133 C10.4779184,32.1145133 8.3530087,34.2345071 8.3530087,36.8487368 C8.3530087,39.4629666 10.4779184,41.5829603 13.1000435,41.5829603 Z M13.1000435,44.5717632 C8.82484325,44.5717632 5.3591087,41.1140465 5.3591087,36.8487368 C5.3591087,32.5834272 8.82484325,29.1257105 13.1000435,29.1257105 C17.3752437,29.1257105 20.8409783,32.5834272 20.8409783,36.8487368 C20.8409783,41.1140465 17.3752437,44.5717632 13.1000435,44.5717632 Z" id="Oval-3" fill="#040404"></path>
                            <rect id="矩形" fill="#0D0D0D" x="19.2068875" y="35.4074207" width="15.925" height="3.17957746"></rect>
                        </g>
                    </g>
                </g>
            </g>
        </g>
    </g>
</svg>